<?xml version="1.0" encoding="UTF-8" standalone="no"?>
<!DOCTYPE svg PUBLIC "-//W3C//DTD SVG 1.1//EN" "http://www.w3.org/Graphics/SVG/1.1/DTD/svg11.dtd">
<!-- Based on http://cdn.flaticon.com/png/256/15457.png -->
<svg xmlns="http://www.w3.org/2000/svg" viewBox="-70 -90 710 570"
     xmlns:xlink="http://www.w3.org/1999/xlink">
	<defs>
		<style type="text/css"><![CDATA[
			#plain {
				fill: black
			}
			.paint {
				fill: white;
			}
			#finger-hole {
				fill: white;
			}
			#paintbrush {
				fill: black;
				stroke: white;
				stroke-width: 2;
			}
		]]></style>
		<g id="palette">
			<path id="plain" d="M 0 0
				a 400,400 0 0 1 400,400
				a 150,150 0 0 1 -150,150
				a 50,50 0 0 1 -50,-50
				a 150,150 0 0 0 -150,-150
				a 250,100 0 0 1 -250,-100
				a 200,250 0 0 1 200,-250
				" />
			<circle class="paint" r="45" cx="-110" cy="230" />
			<circle class="paint" r="45" cx="-65" cy="110" />
			<circle class="paint" r="45" cx="60" cy="75" />
			<circle class="paint" r="45" cx="180" cy="130" />
			<circle class="paint" r="45" cx="280" cy="230" />

			<circle class="paint" r="45" cx="20" cy="220" />
			<circle class="paint" r="45" cx="140" cy="260" />

			<circle id="finger-hole" r="50" cx="290" cy="440" />
		</g>
		<g id="paintbrush"><!-- Bounding box: -20,-367 65 617 -->
			<ellipse id="brush-rod" rx="20" ry="250" />
			<path id="brush" d="
				M 29.341655,-15.480994
				C
				42,-16 43,-16 73,-5
				104,5 125,-10 129,-8
				132,-6 105,31 69,38
				33,45 -5,15 0,1
				5,-13 15,-14
				29,-15 z" transform="translate(0, -250) rotate(-95) translate(-15)" />
		</g>
	</defs>
	<use xlink:href="#palette" transform="skewX(20) rotate(-20)" />
	<use xlink:href="#paintbrush" transform="translate(450,250) rotate(25)" />
</svg>
