<?xml version="1.0" encoding="UTF-8" standalone="no"?>
<!DOCTYPE svg PUBLIC "-//W3C//DTD SVG 1.1//EN" "http://www.w3.org/Graphics/SVG/1.1/DTD/svg11.dtd">
<!-- Based on http://cdn.flaticon.com/png/256/15457.png -->
<svg xmlns="http://www.w3.org/2000/svg" viewBox="-15 -270 530 510">
	<defs>
		<style type="text/css"><![CDATA[
			.item {
				stroke: white;
				fill: black;
				stroke-width: 5;
			}
			#bowl {
				fill: black;
				stroke: white;
				stroke-width: 15;
				stroke-linejoin: round;
			}
		]]></style>
	</defs>
	<g transform="scale(1,3)">
		<rect class="item" width="100" height="100" transform="translate(5,-20) skewX(20) rotate(-40)" />
		<circle class="item" r="50" transform="translate(100, -20)" />
		<rect class="item" width="200" height="100" rx="30" transform="translate(260,-20) rotate(-20) " />
		<rect class="item" width="100" height="100" rx="10" transform="translate(130,-60) rotate(-15) skewY(20) " />
		<rect class="item" width="50" height="140" rx="5" transform="translate(260,-70) skewY(-20) " />
		<ellipse class="item" rx="70" ry="40" transform="translate(350, -5) skewX(-20)" />
		<rect class="item" width="200" height="50" rx="2" transform="translate(260,-90) rotate(55) skewY(-25) " />
		<rect class="item" width="100" height="130" rx="5" transform="translate(160,-40) rotate(-30) " />
		<ellipse class="item" rx="50" ry="30" transform="translate(220, +5) rotate(20)" />
	</g>
	<path id="bowl" d="M0,0 a 5,4.5 0 0 0 500,0 Z" />
</svg>
