<?xml version="1.0" encoding="UTF-8" standalone="no"?>
<!DOCTYPE svg PUBLIC "-//W3C//DTD SVG 1.1//EN" "http://www.w3.org/Graphics/SVG/1.1/DTD/svg11.dtd">
<!-- Based on http://thumbs.dreamstime.com/z/computer-microchip-cpu-icon-3d-27584485.jpg -->
<svg xmlns="http://www.w3.org/2000/svg" viewBox="-200 -200 1400 1400"
		xmlns:xlink="http://www.w3.org/1999/xlink">
	<defs>
		<style type="text/css"><![CDATA[
			#chip {
				fill: black;
				stroke: none;
			}
			#cpu {
				fill: white;
			}
			#leg {
				fill: white;
				stroke: black;
				stroke-width: 10;
			}
			#leg-hole {
				fill: black;
			}
		]]></style>
		<g id="leg">
			<rect x="0" y="0" width="100" height="300" rx="20" ry="20" />
			<circle id="leg-hole" cx="50" cy="50" r="20" /> 
		</g>
	</defs>
	<g id="legs-top" transform="translate(150,-150)">
		<use xlink:href="#leg" transform="translate(000) rotate(0)" />
		<use xlink:href="#leg" transform="translate(150) rotate(0)" />
		<use xlink:href="#leg" transform="translate(300) rotate(0)" />
		<use xlink:href="#leg" transform="translate(450) rotate(0)" />
		<use xlink:href="#leg" transform="translate(600) rotate(0)" />
	</g>
	<g id="legs-bottom" transform="translate(150, 1150) scale(1, -1)">
		<use xlink:href="#leg" transform="translate(000) rotate(0)" />
		<use xlink:href="#leg" transform="translate(150) rotate(0)" />
		<use xlink:href="#leg" transform="translate(300) rotate(0)" />
		<use xlink:href="#leg" transform="translate(450) rotate(0)" />
		<use xlink:href="#leg" transform="translate(600) rotate(0)" />
	</g>
	<g id="legs-left" transform="translate(-150, 850) rotate(-90)">
		<use xlink:href="#leg" transform="translate(000) rotate(0)" />
		<use xlink:href="#leg" transform="translate(150) rotate(0)" />
		<use xlink:href="#leg" transform="translate(300) rotate(0)" />
		<use xlink:href="#leg" transform="translate(450) rotate(0)" />
		<use xlink:href="#leg" transform="translate(600) rotate(0)" />
	</g>
	<g id="legs-right" transform="translate(1150, 150) rotate(90)">
		<use xlink:href="#leg" transform="translate(000) rotate(0)" />
		<use xlink:href="#leg" transform="translate(150) rotate(0)" />
		<use xlink:href="#leg" transform="translate(300) rotate(0)" />
		<use xlink:href="#leg" transform="translate(450) rotate(0)" />
		<use xlink:href="#leg" transform="translate(600) rotate(0)" />
	</g>
	<rect id="chip" x="0" y="0" width="1000" height="1000" rx="50" ry="50" />
	<rect id="cpu" x="375" y="375" width="250" height="250" rx="20" ry="20" />
</svg>
