<?xml version="1.0"?>
<!DOCTYPE svg PUBLIC "-//W3C//DTD SVG 1.1//EN" "http://www.w3.org/Graphics/SVG/1.1/DTD/svg11.dtd">
<!-- Based on http://blog.owlline.com/home.png -->
<svg xmlns="http://www.w3.org/2000/svg" viewBox="-90,-610 780 620">
	<rect id="interior" x="0" y="-300" width="600" height="300" fill="lightgrey" />
	<path id="house" d="
		M 0,0
		v-300
		l+300,-200 l+300,+200
		v+300
		h-350 v-200 h-100 v+200
		Z
		M 375,-100
		m +0, +0  h+75 v-75 h-75 v+75 Z
		m +0, -75 h+75 v-75 h-75 v+75 Z
		m +75,+0  h+75 v-75 h-75 v+75 Z
		m +0, +75 h+75 v-75 h-75 v+75 Z
		" fill="black" stroke="black" stroke-width="10" stroke-linejoin="round" />
	<path id="roof" d="
		M -50,-325
		l+350,-250 l+350,+250
		" fill="none" stroke="black" stroke-width="75" stroke-linecap="round" stroke-linejoin="bevel" />
	<path id="chimney" d="
		M 450,-500
		v-75 h+100 v+150 Z
		" fill="black" stroke="black" stroke-width="20" stroke-linejoin="round" />
	<rect id="sign" x="115" y="-340" width="250" height="100" fill="white" />
	<text x="320" y="-243" text-anchor="middle" font-size="120" transform="scale(0.75, 1)">X &amp; Y</text>
</svg>
