<?xml version="1.0" encoding="UTF-8" standalone="no"?>
<!DOCTYPE svg PUBLIC "-//W3C//DTD SVG 1.1//EN" "http://www.w3.org/Graphics/SVG/1.1/DTD/svg11.dtd">
<!-- Based on http://cdn.flaticon.com/png/256/15457.png -->
<svg xmlns="http://www.w3.org/2000/svg" viewBox="-15 -100 530 330"
		xmlns:xlink="http://www.w3.org/1999/xlink">
	<defs>
		<style type="text/css"><![CDATA[
			.item {
				stroke: white;
				fill: black;
				stroke-width: 5;
			}
			#bowl {
				fill: black;
				stroke: white;
				stroke-width: 15;
			}
			#top {
				stroke: white;
				stroke-width: 10;
			}
		]]></style>
	</defs>
	<rect class="item" width="100" height="100" transform="translate(5,-20) skewX(20) rotate(-20)" />
	<circle class="item" r="50" transform="translate(100, -20)" />
	<rect class="item" width="200" height="100" rx="30" transform="translate(260,-20) rotate(-20) " />
	<rect class="item" width="100" height="100" rx="10" transform="translate(130,-60) rotate(-15) skewY(20) " />
	<rect class="item" width="50" height="150" rx="5" transform="translate(260,-70) skewY(-20) " />
	<ellipse class="item" rx="70" ry="40" transform="translate(350, -5) skewX(-20)" />
	<rect class="item" width="240" height="50" rx="2" transform="translate(260,-90) rotate(55) skewY(-25) " />
	<rect class="item" width="100" height="200" rx="5" transform="translate(160,-40) rotate(-30) " />
	<ellipse class="item" rx="50" ry="30" transform="translate(220, +5) rotate(20)" />
	<path id="bowl" d="M0,0 a 5,4.5 0 0 0 500,0" />
	<line id="top" x2="500" />
</svg>
